<svg xmlns="http://www.w3.org/2000/svg" xmlns:xlink="http://www.w3.org/1999/xlink" viewBox="0 0 58.63 58.46">
    <defs>
        <mask id="a" x="0" y="0" width="58.63" height="58.46" maskUnits="userSpaceOnUse">
            <g transform="translate(-0.41 0)">
                <polygon points="0.41 0 59.04 0 59.04 58.46 0.41 58.46 0.41 0" fill="#fff" fill-rule="evenodd" />
            </g>
        </mask>
    </defs>
    <g mask="url(#a)">
        <path
            d="M41.64,38.28a9.2,9.2,0,1,1,9.22-9.19,9.21,9.21,0,0,1-9.22,9.19m-23.15,0a9.2,9.2,0,1,1,9.22-9.19,9.21,9.21,0,0,1-9.22,9.19M29.73,0A29.23,29.23,0,1,0,59,29.23,29.28,29.28,0,0,0,29.73,0"
            transform="translate(-0.41 0)" fill="#326e5a" fill-rule="evenodd" />
    </g>
</svg>