<svg xmlns="http://www.w3.org/2000/svg" xmlns:xlink="http://www.w3.org/1999/xlink" viewBox="0 0 58.63 58.46">
    <defs>
        <mask id="a" x="0" y="0" width="58.63" height="58.46" maskUnits="userSpaceOnUse">
            <g transform="translate(-0.42 -0.77)">
                <polygon points="0.42 0.77 59.05 0.77 59.05 59.23 0.42 59.23 0.42 0.77" fill="#fff"
                    fill-rule="evenodd" />
            </g>
        </mask>
    </defs>
    <path
        d="M29.74,39.64A9.64,9.64,0,1,1,39.4,30a9.67,9.67,0,0,1-9.66,9.64m0-24.65A15,15,0,1,0,44.79,30a15.05,15.05,0,0,0-15-15"
        transform="translate(-0.42 -0.77)" fill="#326e5a" fill-rule="evenodd" />
    <path d="M46.37,11.83A3.16,3.16,0,1,0,49.54,15a3.15,3.15,0,0,0-3.17-3.16" transform="translate(-0.42 -0.77)"
        fill="#326e5a" fill-rule="evenodd" />
    <g mask="url(#a)">
        <path
            d="M53.65,42.13a11.65,11.65,0,0,1-3.2,8.62,12.14,12.14,0,0,1-8.68,3.09H17.7a12,12,0,0,1-8.58-3.11A11.79,11.79,0,0,1,5.82,42V17.86A11.74,11.74,0,0,1,9,9.27a11.87,11.87,0,0,1,8.58-3.12H41.91a11.75,11.75,0,0,1,8.58,3.19,11.74,11.74,0,0,1,3.16,8.52Zm.67-36.58A17,17,0,0,0,41.91.77H17.56C7.31.77.42,7.64.42,17.86V42A17,17,0,0,0,5.36,54.59,17.31,17.31,0,0,0,17.7,59.23H41.77A17.37,17.37,0,0,0,54.22,54.6a16.91,16.91,0,0,0,4.83-12.47V17.86A17,17,0,0,0,54.32,5.55Z"
            transform="translate(-0.42 -0.77)" fill="#326e5a" fill-rule="evenodd" />
    </g>
</svg>