<svg xmlns="http://www.w3.org/2000/svg" xmlns:xlink="http://www.w3.org/1999/xlink" viewBox="0 0 58.63 58.46">
    <defs>
        <mask id="a" x="0" y="0" width="58.63" height="58.46" maskUnits="userSpaceOnUse">
            <g transform="translate(-0.82 -0.39)">
                <polygon points="0.82 0.39 59.45 0.39 59.45 58.85 0.82 58.85 0.82 0.39" fill="#fff"
                    fill-rule="evenodd" />
            </g>
        </mask>
    </defs>
    <g mask="url(#a)">
        <path
            d="M48.86,26.68a2.74,2.74,0,0,1-1.51-.45c-5.31-3.17-13.54-4.92-21.5-4.92a44.89,44.89,0,0,0-11.71,1.41,6.59,6.59,0,0,1-1.51.32,2.85,2.85,0,0,1-.71-5.59,49.33,49.33,0,0,1,13.91-1.8c8.61,0,17.67,1.76,24.28,5.64a2.76,2.76,0,0,1,1.52,2.65,2.73,2.73,0,0,1-2.77,2.74m-3.64,9a2.75,2.75,0,0,1-1.47-.51,37.22,37.22,0,0,0-18.61-4.7,36.93,36.93,0,0,0-9.57,1.23,5.15,5.15,0,0,1-1.42.32,2.28,2.28,0,0,1-2.29-2.29,2.32,2.32,0,0,1,1.82-2.44,40.72,40.72,0,0,1,11.56-1.6,41.37,41.37,0,0,1,20.93,5.39,2.39,2.39,0,0,1,1.34,2.31,2.28,2.28,0,0,1-2.29,2.29M42,43.41A2.21,2.21,0,0,1,40.79,43a29.5,29.5,0,0,0-15.17-3.91,45.51,45.51,0,0,0-9.25,1,9.5,9.5,0,0,1-1.44.28,1.83,1.83,0,0,1-1.86-1.83,1.87,1.87,0,0,1,1.6-2,49.18,49.18,0,0,1,11-1.29,32.68,32.68,0,0,1,17,4.4,2,2,0,0,1,1.16,2A1.82,1.82,0,0,1,42,43.41M30.14.39A29.23,29.23,0,1,0,59.45,29.62,29.28,29.28,0,0,0,30.14.39"
            transform="translate(-0.82 -0.39)" fill="#326e5a" fill-rule="evenodd" />
    </g>
</svg>