<svg xmlns="http://www.w3.org/2000/svg" xmlns:xlink="http://www.w3.org/1999/xlink" viewBox="0 0 58.63 56.88">
    <defs>
        <mask id="a" x="0" y="26.86" width="58.63" height="30.02" maskUnits="userSpaceOnUse">
            <g transform="translate(-0.85 -0.35)">
                <polygon points="0.85 27.21 59.48 27.21 59.48 57.23 0.85 57.23 0.85 27.21" fill="#fff"
                    fill-rule="evenodd" />
            </g>
        </mask>
    </defs>
    <g mask="url(#a)">
        <path
            d="M50.19,44H44.52v2.79a3.32,3.32,0,0,0,.29,1.63,1.12,1.12,0,0,0,1,.45,1.22,1.22,0,0,0,1-.39,3.2,3.2,0,0,0,.29-1.69v-.67h3v.76a4.76,4.76,0,0,1-1.11,3.44,4.45,4.45,0,0,1-3.33,1.14,4.07,4.07,0,0,1-3.14-1.22,4.72,4.72,0,0,1-1.15-3.36V40.24a4.14,4.14,0,0,1,1.27-3.14A4.44,4.44,0,0,1,46,35.89,4.16,4.16,0,0,1,49.1,37a4.45,4.45,0,0,1,1.09,3.23ZM39.91,48a3.68,3.68,0,0,1-.7,2.42,2.46,2.46,0,0,1-2,.84A3.68,3.68,0,0,1,35.64,51a3.8,3.8,0,0,1-1.26-1v1.14h-3V31h3v6.48a4.43,4.43,0,0,1,1.27-1A2.89,2.89,0,0,1,37,36.07a2.58,2.58,0,0,1,2.15,1,4.46,4.46,0,0,1,.74,2.77ZM29.15,51.09h-3V49.46a6.4,6.4,0,0,1-1.71,1.37,3.59,3.59,0,0,1-1.72.48,1.83,1.83,0,0,1-1.55-.67,3.14,3.14,0,0,1-.52-2V36.25h3V47.63a1.32,1.32,0,0,0,.18.76.73.73,0,0,0,.62.24,1.65,1.65,0,0,0,.82-.31,4.07,4.07,0,0,0,.92-.8V36.25h3ZM19.37,33.91H15.92V51.09H12.57V33.91H9.12V31H19.37Zm29.4-6.7H11.56A10.7,10.7,0,0,0,.85,37.91v8.61A10.71,10.71,0,0,0,11.56,57.23H48.77A10.72,10.72,0,0,0,59.48,46.52V37.91a10.71,10.71,0,0,0-10.71-10.7Z"
            transform="translate(-0.85 -0.35)" fill="#326e5a" fill-rule="evenodd" />
    </g>
    <path
        d="M45.23,38.27a1.61,1.61,0,0,0-1.23.4A1.81,1.81,0,0,0,43.63,40v1.47H46.8V40a1.81,1.81,0,0,0-.38-1.29,1.53,1.53,0,0,0-1.19-.4"
        transform="translate(-0.85 -0.35)" fill="#326e5a" fill-rule="evenodd" />
    <path
        d="M35.71,38.27a2,2,0,0,0-.8.15,2.84,2.84,0,0,0-.79.47V48.6a3.46,3.46,0,0,0,.9.56,2.63,2.63,0,0,0,.92.17A1.36,1.36,0,0,0,37,49a1.5,1.5,0,0,0,.32-1.07V39.87a1.63,1.63,0,0,0-.4-1.2,1.61,1.61,0,0,0-1.18-.4"
        transform="translate(-0.85 -0.35)" fill="#326e5a" fill-rule="evenodd" />
    <polygon
        points="15.59 22.12 19.37 22.12 19.37 12.94 23.77 0 19.93 0 17.59 8.84 17.35 8.84 14.9 0 11.09 0 15.59 13.36 15.59 22.12"
        fill="#326e5a" fill-rule="evenodd" />
    <path
        d="M28,9.16a1.13,1.13,0,0,1,.37-.88,1.43,1.43,0,0,1,1-.33,1.62,1.62,0,0,1,1.06.33,1.13,1.13,0,0,1,.4.88v9a1.39,1.39,0,0,1-.4,1,1.46,1.46,0,0,1-1.06.38,1.28,1.28,0,0,1-1-.37A1.45,1.45,0,0,1,28,18.18Zm1.36,13.31a4.91,4.91,0,0,0,3.5-1.21,4.38,4.38,0,0,0,1.27-3.33V9.38a4,4,0,0,0-1.29-3.09,4.74,4.74,0,0,0-3.34-1.2,5.26,5.26,0,0,0-3.55,1.14,3.82,3.82,0,0,0-1.32,3.06v8.57a4.47,4.47,0,0,0,1.29,3.36,4.72,4.72,0,0,0,3.44,1.25Z"
        transform="translate(-0.85 -0.35)" fill="#326e5a" fill-rule="evenodd" />
    <path
        d="M39.62,22.47a4.33,4.33,0,0,0,1.93-.5,7,7,0,0,0,1.92-1.45v1.72H46.8V6.67H43.47V18.49a4.8,4.8,0,0,1-1,.84,2,2,0,0,1-.93.32.83.83,0,0,1-.68-.25,1.2,1.2,0,0,1-.21-.79V6.67H37.29v13a3.15,3.15,0,0,0,.59,2.08,2.12,2.12,0,0,0,1.74.71"
        transform="translate(-0.85 -0.35)" fill="#326e5a" fill-rule="evenodd" />
</svg>